<?xml version="1.0" standalone="no"?>
<!DOCTYPE svg PUBLIC "-//W3C//DTD SVG 20010904//EN"
 "http://www.w3.org/TR/2001/REC-SVG-20010904/DTD/svg10.dtd">
<svg version="1.0" xmlns="http://www.w3.org/2000/svg"
 width="192.000000pt" height="192.000000pt" viewBox="0 0 192.000000 192.000000"
 preserveAspectRatio="xMidYMid meet">
<metadata>
Created by potrace 1.11, written by Peter Selinger 2001-2013
</metadata>
<g transform="translate(0.000000,192.000000) scale(0.100000,-0.100000)"
fill="#000000" stroke="none">
<path d="M793 1903 c4 -3 1 -13 -6 -22 -11 -14 -10 -14 5 -2 16 12 16 31 1 31
-4 0 -3 -3 0 -7z"/>
<path d="M826 1902 c-3 -5 1 -9 9 -9 8 0 12 4 9 9 -3 4 -7 8 -9 8 -2 0 -6 -4
-9 -8z"/>
<path d="M633 1857 c1 -7 -4 -11 -11 -9 -8 1 -11 -2 -7 -8 5 -8 12 -7 23 2 10
7 18 13 20 14 2 1 -4 4 -12 7 -9 4 -15 1 -13 -6z"/>
<path d="M690 1859 c0 -5 5 -7 10 -4 6 3 10 8 10 11 0 2 -4 4 -10 4 -5 0 -10
-5 -10 -11z"/>
<path d="M570 1820 c0 -5 5 -10 11 -10 5 0 7 5 4 10 -3 6 -8 10 -11 10 -2 0
-4 -4 -4 -10z"/>
<path d="M495 1800 c-3 -5 -1 -10 4 -10 6 0 11 5 11 10 0 6 -2 10 -4 10 -3 0
-8 -4 -11 -10z"/>
<path d="M535 1800 c-3 -5 -2 -10 4 -10 5 0 13 5 16 10 3 6 2 10 -4 10 -5 0
-13 -4 -16 -10z"/>
<path d="M1480 1799 c-74 -29 -79 -128 -8 -162 98 -48 178 97 85 154 -36 21
-42 22 -77 8z"/>
<path d="M469 1785 c-3 -12 -7 -26 -8 -32 -1 -5 -5 -2 -10 6 -5 8 -11 9 -15 3
-11 -18 19 -20 42 -2 18 15 19 19 7 24 -8 3 -16 3 -16 1z"/>
<path d="M410 1740 c0 -7 -3 -10 -7 -7 -10 11 -32 -13 -26 -28 3 -10 -1 -13
-15 -10 -13 2 -27 -5 -38 -20 -10 -13 -21 -22 -26 -19 -4 3 -5 -3 -1 -12 5
-13 3 -15 -7 -9 -9 6 -11 4 -5 -5 6 -10 4 -12 -11 -6 -10 4 -16 4 -12 1 3 -3
-9 -22 -28 -41 -18 -20 -30 -42 -27 -50 3 -10 0 -12 -10 -9 -13 5 -28 -13 -26
-31 0 -4 -3 -10 -8 -13 -5 -3 -19 -21 -32 -38 -20 -29 -20 -32 -4 -27 10 3 7
-2 -7 -10 -22 -14 -21 -21 3 -17 5 1 6 -3 2 -8 -3 -6 -13 -7 -22 -4 -11 4 -14
3 -9 -5 4 -7 2 -12 -3 -12 -6 0 -10 -3 -9 -7 1 -5 -3 -18 -10 -30 -6 -12 -14
-32 -16 -45 -3 -13 -5 -24 -7 -25 -1 -2 -2 -6 -4 -10 -1 -5 -5 -15 -8 -23 -19
-45 -36 -181 -33 -265 2 -44 4 -99 5 -123 0 -24 4 -41 8 -39 5 3 9 -11 9 -32
2 -41 30 -132 65 -206 64 -140 198 -297 328 -385 70 -47 219 -120 246 -120 9
0 25 -4 35 -10 10 -5 36 -12 57 -16 21 -3 52 -9 70 -14 20 -5 35 -4 42 3 7 7
11 7 11 1 0 -8 153 -12 170 -4 3 1 16 1 29 0 13 -1 21 2 18 7 -3 4 18 9 47 10
85 3 275 79 292 117 5 11 16 22 24 24 9 3 7 -2 -5 -12 -11 -8 -15 -16 -9 -16
6 0 17 7 24 15 7 8 18 15 24 15 6 0 26 14 44 30 18 17 35 30 38 30 8 0 69 70
70 80 3 23 5 24 14 10 8 -13 10 -12 10 3 0 9 4 17 10 17 13 0 32 38 25 51 -4
5 -20 -7 -36 -28 -17 -21 -40 -46 -52 -56 -12 -10 -16 -16 -10 -12 8 4 11 1 7
-9 -3 -8 -11 -13 -18 -10 -6 2 -27 -11 -46 -30 -19 -19 -38 -32 -42 -29 -5 2
-8 -1 -8 -6 0 -6 -7 -11 -16 -11 -8 0 -12 -4 -9 -10 3 -5 -3 -10 -14 -10 -11
0 -23 -5 -26 -10 -8 -12 -120 -66 -158 -75 -15 -4 -27 -11 -27 -16 0 -5 -3 -8
-7 -7 -7 2 -63 -9 -95 -17 -5 -2 -26 -3 -49 -4 -22 0 -38 -5 -35 -10 3 -4 -5
-7 -17 -5 -12 2 -69 5 -127 8 -130 6 -154 11 -257 46 -120 41 -205 91 -336
199 -77 64 -196 248 -237 367 -57 162 -70 358 -34 501 4 13 0 31 -7 41 -13 15
-12 16 4 3 15 -12 17 -11 17 11 0 13 5 29 12 36 9 9 9 12 -2 12 -10 0 -11 3
-4 8 17 11 36 51 29 62 -3 6 -1 10 5 10 6 0 8 5 5 10 -3 6 -2 10 3 10 5 0 19
23 33 52 13 28 29 56 34 63 17 18 55 74 55 80 0 3 -5 3 -12 -1 -7 -4 -8 -3 -4
4 4 6 13 9 21 5 11 -3 13 -1 9 10 -3 8 0 18 7 23 8 5 10 3 5 -7 -4 -8 -1 -6 7
3 8 10 18 14 22 10 5 -4 5 -1 1 6 -4 6 -2 12 3 12 6 0 11 7 11 15 0 8 3 14 8
14 20 -3 31 3 37 21 4 11 10 18 15 15 5 -3 14 4 20 15 6 11 15 18 20 15 14 -8
23 16 11 28 -8 8 -11 7 -11 -3z m-74 -78 c-17 -16 -18 -16 -5 5 7 12 15 20 18
17 3 -2 -3 -12 -13 -22z m-141 -162 c-3 -5 -12 -10 -18 -10 -7 0 -6 4 3 10 19
12 23 12 15 0z m1499 -1134 c-3 -8 -13 -17 -22 -21 -13 -5 -13 -2 3 15 21 24
26 25 19 6z m-146 -145 c-23 -23 -46 -41 -50 -41 -4 0 14 20 40 44 26 25 48
43 50 41 2 -2 -16 -22 -40 -44z m-178 -105 c0 -2 -8 -10 -17 -17 -16 -13 -17
-12 -4 4 13 16 21 21 21 13z"/>
<path d="M865 1423 c-304 -73 -454 -396 -308 -665 59 -108 185 -198 310 -221
73 -14 83 -14 158 -3 248 38 420 285 369 531 -35 169 -156 300 -319 348 -49
14 -170 20 -210 10z m170 -283 c126 -61 135 -238 16 -315 -47 -30 -91 -39
-137 -26 -95 26 -150 101 -142 197 11 128 144 201 263 144z"/>
<path d="M1896 902 c-3 -5 1 -9 9 -9 8 0 12 4 9 9 -3 4 -7 8 -9 8 -2 0 -6 -4
-9 -8z"/>
<path d="M1869 743 c-13 -16 -12 -17 4 -4 9 7 17 15 17 17 0 8 -8 3 -21 -13z"/>
<path d="M1827 643 c-3 -5 4 -15 16 -23 21 -12 21 -12 7 6 -8 10 -15 20 -16
22 -1 2 -4 -1 -7 -5z"/>
<path d="M1783 543 c8 -13 -2 -45 -12 -38 -4 2 -8 -2 -8 -10 0 -10 4 -12 12
-5 7 5 14 8 16 5 3 -2 5 6 4 20 0 13 -4 27 -9 32 -5 4 -6 3 -3 -4z"/>
<path d="M1733 451 c-10 -16 -9 -22 4 -33 10 -7 14 -8 10 -1 -4 6 -1 14 5 16
10 4 9 6 -1 6 -11 1 -11 4 -1 16 7 8 8 15 4 15 -5 0 -15 -9 -21 -19z"/>
<path d="M1700 416 c0 -2 7 -9 15 -16 9 -7 15 -8 15 -2 0 5 -7 12 -15 16 -8 3
-15 4 -15 2z"/>
</g>
</svg>
